<svg data-v-0dd9719b="" version="1.0" xmlns="http://www.w3.org/2000/svg" xmlns:xlink="http://www.w3.org/1999/xlink" width="100%" height="100%" viewBox="0 0 340.000000 250.000000" preserveAspectRatio="xMidYMid meet" color-interpolation-filters="sRGB" style="margin: auto;"> <rect data-v-0dd9719b="" x="0" y="0" width="100%" height="100%" fill="#fff" fill-opacity="1" class="background"></rect> <rect data-v-0dd9719b="" x="0" y="0" width="100%" height="100%" fill="url(#watermark)" fill-opacity="1" class="watermarklayer"></rect> <g data-v-0dd9719b="" fill="#333" class="icon-text-wrapper icon-svg-group iconsvg" transform="translate(50.10500335761656,94.92209815979004)"><g class="iconsvg-imagesvg" transform="translate(0,0)"><g><rect fill="#333" fill-opacity="0" stroke-width="2" x="0" y="0" width="60" height="60.155803531145665" class="image-rect"></rect> <svg x="0" y="0" width="60" height="60.155803531145665" filtersec="colorsb7786077144" class="image-svg-svg primary" style="overflow: visible;"><svg xmlns="http://www.w3.org/2000/svg" viewBox="-0.028078868985176086 -0.04158654808998108 163.63645935058594 164.06118774414062"><title>资源 93</title><path d="M130.12 125.21c-7.16 0-14.32.05-21.48 0a6.18 6.18 0 0 0-4.84 2c-5 5.18-10.21 10.26-15.34 15.36-.38.38-.67 1.17-1.34.84s-.42-1-.42-1.59q0-19.23-.1-38.45c0-1.66.24-3.34.14-5-.46-7.18 6.39-11.78 12.47-11.69 9.41.14 18.82 0 28.23 0 7.74 0 15.49.09 23.23 0a13.7 13.7 0 0 1 11.09 5.22 5.87 5.87 0 0 1 1.3 3.18c.88 6.8.48 13.62.3 20.43-.13 5.34-6.86 9.85-11.26 9.75-7.32-.16-14.65 0-22 0z" fill="#f5b01c"></path><path d="M77.08 125.41c0 8.65-.18 17.31.06 26A12 12 0 0 1 64.47 164c-4.65-.26-9.32-.06-14-.06-7.38 0-12.21-4.76-12.24-12.17q-.08-21.36 0-42.72a6.15 6.15 0 0 0-2-4.8c-5-5-10.47-9.73-15.18-15.12-.57-.65-1.73-1.18-1.28-2.2s1.49-.44 2.27-.44h42c8.24 0 13 4.75 13 13 .06 8.6.04 17.26.04 25.92z" fill="#0f4078"></path><path d="M86.56 38.5c0-8.58.23-17.16-.06-25.72A12 12 0 0 1 99.47 0c4.54.39 9.15.1 13.72.07C120.06.06 125 4.67 125 11.53q.12 21 0 41.94a8.92 8.92 0 0 0 3 7.23c4.92 4.59 9.61 9.45 14.37 14.22.5.5 1.41 1 1.1 1.78s-1.32.51-2 .51H98.53a11.84 11.84 0 0 1-12-12.48c.22-8.73.05-17.48.05-26.21z" fill="#ee4419"></path><path d="M38.56 77.17h-26c-4 0-7.47-1.14-10.11-4.41a10.62 10.62 0 0 1-2.41-6.9c0-5.24.16-10.49-.06-15.73-.25-5.85 5.34-11.53 11.35-11.45 14.15.16 28.3 0 42.45.09a8 8 0 0 0 6.37-2.62c4.64-4.89 9.47-9.59 14.25-14.35.55-.54 1.07-1.58 2-1.18s.48 1.5.48 2.27c0 14.4.09 28.8 0 43.2 0 6.14-5.3 11-11.86 11.07-8.81.07-17.63.01-26.46.01z" fill="#29c1ca"></path></svg></svg> <!----></g></g> <g transform="translate(67,2.296651840209961)"><g data-gra="path-name" fill-rule="" class="tp-name iconsvg-namesvg" transform="translate(0,0)"><g transform="scale(1)"><g><path d="M16.7-27.6L16.7-35.16 24.26-35.16 24.26-27.6 40.96-27.6 40.96-23.91 20.92-23.91Q20.74-23.73 18.98-19.69L18.98-19.69Q18.11-17.93 8.96 2.11L8.96 2.11 7.38 5.45 0 5.45 0 5.45Q9.49-15.29 10.37-17.23L10.37-17.23Q13.36-23.55 13.54-23.91L13.54-23.91 0-23.91 0-27.6 16.7-27.6ZM20.74-22.68L20.74-22.68 28.13-22.68Q28.3-22.5 29.88-18.81L29.88-18.81Q37.97-1.41 38.5-0.18L38.5-0.18Q38.67 0.18 41.13 5.45L41.13 5.45 33.75 5.45Q33.57 5.27 31.99 1.76L31.99 1.76Q31.46 0.53 21.8-20.57L21.8-20.57Q21.8-20.57 20.74-22.68ZM14.59-8.09L14.59-8.09 21.97-8.09Q22.15-8.09 22.32-6.68L22.32-6.68Q22.68-5.8 25.66 5.45L25.66 5.45 18.11 5.45Q18.11 5.1 14.59-8.09ZM46.93-8.79L46.93-34.1 84.55-34.1 84.55-30.59 73.65-30.59Q73.65-30.59 73.13-28.48L73.13-28.48Q73.13-28.3 72.42-26.37L72.42-26.37 79.28-26.37Q81.91-26.37 82.79-24.08L82.79-24.08Q82.97-23.55 82.97-23.03L82.97-23.03 82.97-9.14 73.13-9.14 73.13 5.45 65.74 5.45 65.74-9.14 55.72-9.14 55.72-26.37Q55.72-26.37 55.72-26.37L55.72-26.37 62.58-26.37Q62.75-26.37 62.75-26.37L62.75-26.37 62.75-19.69 76.11-19.69 76.11-21.09Q76.11-22.32 74.88-22.68L74.88-22.68Q74.71-22.85 74.53-22.85L74.53-22.85Q65.57-22.85 63.98-22.85L63.98-22.85 63.98-26.37Q63.98-26.37 63.98-26.37L63.98-26.37 65.04-26.37Q65.21-26.37 65.39-27.42L65.39-27.42Q65.74-28.48 66.27-30.41L66.27-30.41 66.27-30.59 54.32-30.59 54.32-8.79Q54.32-1.05 51.68 4.75L51.68 4.75Q51.33 5.45 51.33 5.45L51.33 5.45 43.95 5.45 43.95 5.45Q45 3.34 45.88-0.53L45.88-0.53Q46.93-5.1 46.93-8.79L46.93-8.79ZM76.11-16L62.75-16 62.75-12.83 76.11-12.83 76.11-16ZM54.14 5.45L56.6-7.91 63.63-7.91 63.63-7.91Q61.7 2.11 61.17 5.45L61.17 5.45 54.14 5.45ZM75.06-7.91L75.06-7.91 82.09-7.91Q82.09-7.91 82.27-6.86L82.27-6.86 84.55 5.45 77.52 5.45Q75.06-7.91 75.06-7.91L75.06-7.91ZM90.53-25.66L90.53-35.16 97.03-35.16 97.03-25.66 99.67-25.66 99.67-21.97 97.03-21.97 97.03 5.45 90.53 5.45 90.53-21.97 87.89-21.97 87.89-25.66 90.53-25.66ZM110.57-32.87L110.57-35.16 117.07-35.16 117.07-32.87 119.53-32.87 119.18-35.16 126.56-35.16 126.91-32.87 127.97-32.87 127.97-29.18 117.07-29.18 117.07-27.6 123.75-27.6Q125.51-27.6 126.56-25.84L126.56-25.84Q127.09-24.96 127.09-24.08L127.09-24.08 127.09-16.7Q127.09-11.6 125.86-10.02L125.86-10.02 119.53-10.02 119.53-10.2Q120.06-10.72 120.41-12.13L120.41-12.13Q120.59-12.48 120.59-12.66L120.59-12.66 117.07-12.66 117.07-10.02 110.57-10.02 110.57-12.66 106.88-12.66 106.88-10.02 100.55-10.02 100.55-27.6 106.88-27.6 106.88-21.45 110.57-21.45 110.57-23.91 108.11-23.91 108.11-27.6 110.57-27.6 110.57-29.18 99.84-29.18 99.84-32.7Q99.84-32.87 99.84-32.87L99.84-32.87 110.57-32.87ZM119.18-23.91L117.07-23.91 117.07-21.45 120.76-21.45 120.76-21.97Q120.76-23.38 119.88-23.73L119.88-23.73Q119.53-23.91 119.18-23.91L119.18-23.91ZM110.57-17.75L106.88-17.75 106.88-16.17 110.57-16.17 110.57-17.75ZM120.76-17.75L117.07-17.75 117.07-16.17 120.76-16.17Q120.76-16.52 120.76-16.7L120.76-16.7 120.76-17.75ZM117.77-7.73L117.77-9.14 124.63-9.14Q124.8-9.14 124.8-8.96L124.8-8.96 124.8-7.73 128.14-7.73 128.14-4.04 124.8-4.04 124.8-2.29Q124.8 1.23 123.93 3.16L123.93 3.16Q123.57 4.75 123.05 5.45L123.05 5.45 116.02 5.45 116.02 5.45Q117.77 2.11 117.77-1.41L117.77-1.41 117.77-4.04 99.32-4.04 99.32-7.73 117.77-7.73ZM101.43-2.46L101.43-2.46 108.28-2.46Q108.46-2.46 109.51 0.18L109.51 0.18Q109.51 0.18 111.09 3.87L111.09 3.87 104.06 3.87Q104.06 3.87 101.43-2.46ZM157.15-29.71L157.15-35.16 164.53-35.16 164.53-29.71 171.56-29.71 171.56-26.02 164.53-26.02 164.53-18.46 172.79-18.46Q172.79-18.46 172.79-18.28L172.79-18.28 172.79-14.77 148.71-14.77 148.71-18.28Q148.89-18.46 148.89-18.46L148.89-18.46 157.15-18.46 157.15-26.02 149.24-26.02 150.12-34.45 156.27-34.45 156.27-34.45Q156.27-33.93 155.74-29.71L155.74-29.71 157.15-29.71ZM136.05-31.64L136.93-35.16 142.91-35.16 142.21-31.64 143.26-31.64Q145.2-31.64 146.07-30.41L146.07-30.41Q146.78-29.71 146.95-28.83L146.95-28.83Q146.95-28.48 146.95-27.77L146.95-27.77 146.95 5.45 131.84 5.45 131.84-31.64 136.05-31.64ZM140.1-27.95L137.11-27.95 137.11-14.94 141.68-14.94 141.68-26.37Q141.68-27.6 140.45-27.95L140.45-27.95Q140.27-27.95 140.1-27.95L140.1-27.95ZM149.59 5.45L149.59-12.13 156.97-12.13 156.97 1.93 164.71 1.93 164.71-6.86Q164.71-8.09 163.48-8.44L163.48-8.44Q163.13-8.44 162.95-8.44L162.95-8.44 158.2-8.44 158.2-12.13 168.57-12.13Q170.33-12.13 171.56-10.55L171.56-10.55Q172.09-9.67 172.09-8.79L172.09-8.79 172.09 5.45 149.59 5.45ZM141.68-11.25L137.11-11.25 137.11 1.93 141.68 1.93 141.68-11.25Z" transform="translate(0, 35.15999984741211)"></path></g> <!----> <!----> <!----> <!----> <!----> <!----> <!----></g></g> <g data-gra="path-slogan" fill-rule="" class="tp-slogan iconsvg-slogansvg" fill="#333" transform="translate(5,46.61000061035156)"><rect x="0" height="1" y="3.9750003814697266" width="29.574996948242188"></rect> <rect height="1" y="3.9750003814697266" width="29.574996948242188" x="133.21499633789062"></rect> <g transform="translate(32.57499694824219,0)"><g transform="scale(1)"><path d="M3.09-7.59L0.19-7.59L0.19-8.58L7.13-8.58L7.13-7.59L4.22-7.59L4.22 0L3.09 0L3.09-7.59ZM13.83 0L12.98-2.48L9.52-2.48L8.63 0L7.45 0L10.69-8.58L12-8.58L15.09 0L13.83 0ZM11.25-7.31L9.89-3.52L12.56-3.52L11.30-7.31L11.25-7.31ZM16.31-8.58L17.48-8.58L17.48 0L16.31 0L16.31-8.58ZM26.39-8.58L23.16-3.47L23.16 0L21.98 0L21.98-3.47L18.75-8.58L20.11-8.58L22.55-4.45L25.03-8.58L26.39-8.58ZM33.09-3.19L33.09-8.58L34.27-8.58L34.27-3.05Q34.13 0.05 30.75 0.14L30.75 0.14Q27.61 0.05 27.47-2.86L27.47-2.86L27.47-8.58L28.64-8.58L28.64-3.19Q28.69-0.84 30.80-0.80L30.80-0.80Q33.09-0.84 33.09-3.19L33.09-3.19ZM41.72 0L40.88-2.48L37.41-2.48L36.52 0L35.34 0L38.58-8.58L39.89-8.58L42.98 0L41.72 0ZM39.14-7.31L37.78-3.52L40.45-3.52L39.19-7.31L39.14-7.31ZM45.42-8.58L49.73-1.64L49.73-8.58L50.86-8.58L50.86 0L49.55 0L45.19-6.94L45.14-6.94L45.14 0L44.02 0L44.02-8.58L45.42-8.58ZM59.20-7.64L57.14-7.64L57.14-4.97L59.20-4.97Q61.03-4.92 60.98-6.38L60.98-6.38Q60.98-7.64 59.20-7.64L59.20-7.64ZM59.67 0L55.97 0L55.97-8.58L59.77-8.58Q62.06-8.48 62.16-6.42L62.16-6.42Q62.16-5.16 61.03-4.64L61.03-4.64Q62.63-4.08 62.63-2.53L62.63-2.53Q62.48-0.09 59.67 0L59.67 0ZM59.39-3.98L57.14-3.98L57.14-0.98L59.63-0.98Q61.41-1.03 61.45-2.53L61.45-2.53Q61.45-3.98 59.39-3.98L59.39-3.98ZM70.73-4.27L70.73-4.27Q70.55-7.64 67.73-7.83L67.73-7.83Q64.88-7.69 64.73-4.27L64.73-4.27Q64.88-0.94 67.73-0.80L67.73-0.80Q70.55-0.98 70.73-4.27ZM71.91-4.27L71.91-4.27Q71.63 0 67.73 0.14L67.73 0.14Q63.80 0 63.52-4.27L63.52-4.27Q63.75-8.72 67.73-8.81L67.73-8.81Q71.63-8.67 71.91-4.27ZM74.44-5.06L78.94-5.06L78.94-8.58L80.11-8.58L80.11 0L78.94 0L78.94-3.98L74.44-3.98L74.44 0L73.27 0L73.27-8.58L74.44-8.58L74.44-5.06ZM87.56 0L86.72-2.48L83.25-2.48L82.36 0L81.19 0L84.42-8.58L85.73-8.58L88.83 0L87.56 0ZM84.98-7.31L83.63-3.52L86.30-3.52L85.03-7.31L84.98-7.31ZM96.66-4.27L96.66-4.27Q96.47-7.64 93.66-7.83L93.66-7.83Q90.80-7.69 90.66-4.27L90.66-4.27Q90.80-0.94 93.66-0.80L93.66-0.80Q96.47-0.98 96.66-4.27ZM97.83-4.27L97.83-4.27Q97.55 0 93.66 0.14L93.66 0.14Q89.72 0 89.44-4.27L89.44-4.27Q89.67-8.72 93.66-8.81L93.66-8.81Q97.55-8.67 97.83-4.27Z" transform="translate(-0.1875, 8.8125)"></path></g></g></g></g></g><defs v-gra="od"></defs></svg>